<svg width="329" height="336" viewBox="0 0 329 336" fill="none" xmlns="http://www.w3.org/2000/svg">
<g clip-path="url(#clip0)">
<path d="M261.747 111.737L133.387 335.265L0.923515 112.857L261.747 111.737Z" fill="#040404"/>
<path d="M100.615 159.189L102.533 159.117H102.902C103.247 159.117 103.419 159.189 103.419 159.335C103.419 159.819 102.976 160.085 102.09 160.134C95.0062 160.618 90.8245 160.957 89.5454 161.151C83.6418 168.416 77.9105 174.082 72.3513 178.151C73.6796 178.78 75.8688 179.361 78.919 179.894C79.3618 179.943 79.5832 180.088 79.5832 180.33C79.5832 180.572 79.3372 180.693 78.8452 180.693C76.8774 180.693 74.4667 180.04 71.6134 178.732C66.7921 182.122 62.6104 183.817 59.0683 183.817C56.8053 183.817 55.6738 183.115 55.6738 181.71C55.6738 180.693 55.9689 179.967 56.5593 179.531C56.4117 179.967 56.3379 180.427 56.3379 180.911C56.3379 182.219 57.2726 182.873 59.1421 182.873C62.3891 182.873 66.128 181.299 70.3589 178.151C69.8669 177.908 69.1043 177.448 68.0712 176.77C64.7259 179.144 62.0693 180.33 60.1014 180.33C59.7571 180.33 59.5849 180.233 59.5849 180.04C59.5849 179.7 59.8309 179.507 60.3228 179.458C62.7826 178.635 65.0703 177.473 67.1857 175.971C65.7098 174.567 64.9719 173.114 64.9719 171.612C64.9719 168.852 67.2103 166.357 71.6871 164.129C74.6389 162.628 78.1073 161.49 82.0922 160.715C88.9304 151.852 94.1698 142.747 97.8104 133.399C98.0071 132.963 98.8435 130.348 100.319 125.553C100.369 125.214 100.565 125.044 100.91 125.044C100.959 125.093 100.984 125.141 100.984 125.19C100.984 129.064 98.7697 135.143 94.342 143.425C91.0951 149.575 87.5775 155.242 83.7894 160.424L87.3316 160.061C90.5785 155.702 94.1452 149.915 98.0317 142.698C101.967 135.482 103.935 130.081 103.935 126.497C103.935 124.27 102.927 123.01 100.91 122.72C100.467 122.623 100.246 122.453 100.246 122.211C100.246 121.969 100.516 121.848 101.057 121.848C102.828 121.848 104.23 122.405 105.264 123.519C106.248 124.73 106.739 126.207 106.739 127.95C106.739 131.873 104.796 137.371 100.91 144.442C98.1547 149.333 94.7356 154.443 90.6523 159.771C94.9816 159.383 98.3023 159.189 100.615 159.189ZM122.236 172.411C122.236 173.186 121.695 174.276 120.613 175.681C119.531 177.134 118.522 178.102 117.587 178.587C116.653 179.119 115.496 179.386 114.119 179.386C112.741 179.386 111.118 178.635 109.248 177.134C107.379 175.681 105.977 173.961 105.042 171.976C104.157 170.038 103.714 167.253 103.714 163.621C103.714 159.94 104.083 155.024 104.821 148.873C105.559 142.674 105.977 138.848 106.075 137.395C106.174 135.893 106.371 135.143 106.666 135.143C107.108 135.143 107.354 135.651 107.404 136.668V148.219C107.404 161.006 108.461 169.723 110.577 174.373C111.856 177.23 113.332 178.659 115.004 178.659C117.218 178.659 119.629 176.577 122.236 172.411ZM86.0771 161.659C84.9455 161.902 83.6172 162.241 82.0922 162.676C77.8121 168.101 73.5074 172.508 69.1781 175.899C69.6209 176.48 70.2851 177.037 71.1706 177.569C75.6966 174.034 80.6655 168.731 86.0771 161.659ZM80.1735 163.258C72.2037 166.357 68.2188 169.651 68.2188 173.138C68.2188 173.719 68.3418 174.324 68.5878 174.954C72.3267 172 76.1886 168.101 80.1735 163.258ZM139.506 161.223L137.366 161.078C135.497 164.081 133.086 166.672 130.134 168.852C127.232 171.031 124.206 172.121 121.058 172.121C120.074 172.121 119.262 172.024 118.622 171.83L118.401 173.356C118.253 174.131 118.007 174.518 117.663 174.518C117.368 174.518 117.22 174.179 117.22 173.501C117.22 172.871 117.294 172.145 117.442 171.322C116.31 170.644 115.744 169.796 115.744 168.779C115.744 167.181 117.048 165.607 119.656 164.057C120.738 160.957 121.746 158.269 122.681 155.993C121.648 157.01 120.541 158.196 119.36 159.553C119.114 159.795 118.918 159.916 118.77 159.916C118.622 159.916 118.549 159.819 118.549 159.625C118.549 158.85 120.197 156.986 123.493 154.031C129.347 139.744 134.218 128.992 138.104 121.775C138.645 120.952 139.506 120.54 140.687 120.54C141.917 120.54 142.532 120.758 142.532 121.194C142.532 121.243 140.835 124.536 137.44 131.074C134.045 137.564 130.799 144.078 127.699 150.617C131.635 147.856 134.759 146.476 137.071 146.476C139.383 146.476 140.539 147.977 140.539 150.98C140.539 153.934 139.654 157.01 137.883 160.206C139.26 160.255 139.949 160.497 139.949 160.933C139.949 161.127 139.801 161.223 139.506 161.223ZM135.152 160.134C135.89 158.1 136.259 155.751 136.259 153.087C136.259 150.423 135.398 149.091 133.676 149.091C132.004 149.091 129.716 150.205 126.814 152.433C124.354 157.712 122.78 161.175 122.091 162.822C125.879 161.272 130.233 160.376 135.152 160.134ZM120.762 170.74C123.616 170.74 126.371 169.796 129.027 167.907C131.733 165.97 133.627 163.694 134.71 161.078C129.888 161.466 125.338 162.822 121.058 165.147L118.991 170.595C119.68 170.692 120.27 170.74 120.762 170.74ZM118.696 166.745C117.811 167.568 117.368 168.246 117.368 168.779C117.368 169.263 117.516 169.651 117.811 169.941C117.958 169.215 118.253 168.149 118.696 166.745ZM157.478 156.283L157.7 154.903C157.7 154.128 157.429 153.499 156.888 153.014C156.396 152.481 155.806 152.215 155.117 152.215C154.526 158.124 153.075 162.652 150.763 165.8H153.051C152.411 166.188 151.919 166.382 151.575 166.382C151.28 166.382 151.058 166.357 150.911 166.309C150.812 166.26 150.689 166.236 150.542 166.236C150.591 166.285 150.443 166.454 150.099 166.745C149.804 166.987 148.894 167.762 147.368 169.07C145.843 170.377 144.417 171.031 143.088 171.031C141.17 171.031 140.21 169.82 140.21 167.399C140.21 164.444 141.342 161.417 143.605 158.318C142.818 156.429 142.424 154.443 142.424 152.36C142.424 150.229 142.842 148.389 143.679 146.839C145.302 143.788 147.319 142.262 149.73 142.262C152.78 142.262 154.551 144.829 155.043 149.963C157.503 150.06 158.733 151.319 158.733 153.741C158.733 155.726 158.413 156.719 157.773 156.719C157.577 156.719 157.478 156.574 157.478 156.283ZM149.804 143.86C148.229 143.86 146.778 145.386 145.45 148.437C144.613 150.278 144.195 152.046 144.195 153.741C144.195 155.436 144.269 156.695 144.417 157.518C147.418 153.547 150.566 151.077 153.862 150.108C152.878 145.943 151.525 143.86 149.804 143.86ZM153.936 152.142C152.854 152.288 151.157 153.281 148.844 155.121C146.581 156.913 145.179 158.342 144.638 159.407C145.671 163.088 146.926 165.098 148.402 165.437C149.582 164.372 150.788 162.265 152.017 159.117C153.297 155.969 153.936 153.644 153.936 152.142ZM144.121 160.061C142.498 162.773 141.686 164.929 141.686 166.527C141.686 168.077 142.227 168.852 143.31 168.852C144.638 168.852 146.237 167.835 148.106 165.8C146.483 165.607 145.155 163.694 144.121 160.061ZM182.74 166.382V166.527C181.018 168.852 179.124 170.014 177.057 170.014C174.991 170.014 173.958 168.222 173.958 164.638C173.958 163.185 174.081 161.127 174.327 158.463C172.457 161.95 169.383 165.34 165.103 168.634C164.66 168.973 163.824 169.602 162.594 170.523C162.348 170.716 161.905 170.813 161.265 170.813C160.675 170.813 160.38 170.668 160.38 170.377C160.38 168.634 161.167 166.236 162.741 163.185C164.365 160.134 165.373 157.954 165.767 156.647C166.16 155.291 166.357 153.402 166.357 150.98C166.16 151.755 165.275 153.474 163.701 156.138C161.339 160.158 160.011 162.168 159.716 162.168C159.42 162.168 159.273 162.071 159.273 161.877L161.487 158.172C163.848 154.104 165.373 150.689 166.062 147.929C166.357 146.67 166.947 146.04 167.833 146.04C168.719 146.04 169.161 147.154 169.161 149.382C169.161 151.561 168.522 154.637 167.243 158.608L164.143 168.125C168.276 165.025 171.72 161.224 174.475 156.719C174.966 153.329 175.631 151.101 176.467 150.036C176.762 149.697 177.303 149.527 178.09 149.527C178.927 149.527 179.345 149.793 179.345 150.326C179.345 151.779 178.878 153.111 177.943 154.322C176.861 157.954 176.319 161.49 176.319 164.929C176.319 167.253 177.057 168.416 178.533 168.416C179.271 168.416 180.009 168.101 180.747 167.471C181.534 166.842 182.026 166.43 182.223 166.236C182.469 166.043 182.567 165.946 182.518 165.946C182.666 165.946 182.74 166.091 182.74 166.382ZM207.673 147.13C207.673 147.953 203.516 149.527 195.202 151.852C192.988 156.065 191.635 158.753 191.143 159.916C189.864 162.919 189.224 165.8 189.224 168.561C189.224 170.159 189.765 170.958 190.848 170.958C192.176 170.958 193.922 170.038 196.087 168.198L199.408 165.364C199.555 165.364 199.629 165.437 199.629 165.582C199.629 165.728 199.555 165.946 199.408 166.236C198.621 167.399 197.292 168.706 195.423 170.159C193.553 171.564 192.078 172.266 190.995 172.266C188.535 172.266 187.306 170.789 187.306 167.835C187.306 165.704 187.847 163.064 188.929 159.916C188.437 158.56 187.453 157.567 185.977 156.937C185.534 156.743 184.87 156.477 183.985 156.138C183.099 155.799 182.386 155.508 181.845 155.266C181.304 155.024 181.033 154.54 181.033 153.813C181.033 153.038 181.377 152.578 182.066 152.433H184.059C186.617 152.433 189.347 152.142 192.25 151.561L199.334 135.942C199.678 135.07 200.49 134.634 201.769 134.634C203.098 134.634 203.762 134.876 203.762 135.361C203.762 135.506 202.827 137.588 200.957 141.608C199.137 145.58 198.129 147.662 197.932 147.856L196.677 149.019L195.792 150.762C196.973 150.423 200.564 149.212 206.566 147.13C207.058 147.033 207.353 146.984 207.451 146.984C207.599 146.984 207.673 147.033 207.673 147.13ZM191.733 152.796C188.978 153.426 186.494 153.91 184.28 154.249C186.838 155.557 188.486 157.107 189.224 158.899C189.716 157.543 190.552 155.508 191.733 152.796Z" fill="white"/>
<path d="M138.897 215.238L139.23 213.422C139.23 211.799 138.369 210.988 136.647 210.988C133.966 210.988 130.792 213.192 127.127 217.599C126.266 223.193 125.836 227.116 125.836 229.368C125.836 233 126.525 234.817 127.902 234.817C129.034 234.817 130.46 233.473 132.182 230.785L132.994 229.513C133.092 229.344 133.178 229.259 133.252 229.259C133.277 229.283 133.289 229.344 133.289 229.441C133.289 229.513 133.264 229.574 133.215 229.622C131.198 233.376 129.341 235.252 127.644 235.252C125.209 235.252 123.991 233.545 123.991 230.131C123.991 227.758 124.729 223.956 126.205 218.725C124.778 220.517 122.072 224.549 118.087 230.821C116.636 233.121 115.394 234.744 114.361 235.688C113.352 236.657 112.737 237.141 112.516 237.141C112.467 237.141 112.442 237.057 112.442 236.887C112.442 236.742 112.541 236.645 112.737 236.596C113.008 236.185 113.143 235.398 113.143 234.235C113.143 233.097 112.897 231.245 112.405 228.678C112.061 226.595 111.889 224.622 111.889 222.757C111.889 220.892 112.122 218.919 112.59 216.836C113.254 213.979 114.25 212.55 115.578 212.55C115.628 212.55 115.652 212.586 115.652 212.659C115.652 212.707 115.591 212.768 115.468 212.84C114.312 213.422 113.734 215.395 113.734 218.761C113.734 221.255 114.066 224.573 114.73 228.714C114.804 229.15 114.84 229.61 114.84 230.094C114.84 232.589 114.287 234.683 113.18 236.379C114.336 235.652 116.316 232.964 119.121 228.315C120.104 226.644 121.347 224.67 122.847 222.394C124.348 220.093 125.639 218.277 126.721 216.945C127.09 215.492 127.312 214.766 127.386 214.766C127.459 214.766 127.496 214.862 127.496 215.056C127.496 215.25 127.447 215.625 127.349 216.182C128.702 214.584 130.116 213.204 131.592 212.041C133.633 210.395 135.355 209.571 136.757 209.571C137.618 209.571 138.319 209.886 138.861 210.516C139.303 211.097 139.525 211.726 139.525 212.404C139.525 213.058 139.463 213.712 139.34 214.366C139.217 214.996 139.07 215.323 138.897 215.347V215.238ZM112.147 215.129C112.147 218.616 111.052 222.369 108.863 226.389C106.674 230.409 104.116 233.557 101.189 235.834C98.4827 237.989 95.7646 239.067 93.0342 239.067C92.1241 239.067 91.3862 238.812 90.8204 238.304C90.2546 237.795 89.9718 237.069 89.9718 236.124C89.9718 235.18 90.3653 234.175 91.1525 233.109C91.2263 233.037 91.2878 233 91.337 233C91.3862 233 91.4108 233.049 91.4108 233.146C91.3124 233.364 91.2017 233.666 91.0787 234.054C90.8081 234.659 90.6728 235.277 90.6728 235.906C90.6728 236.536 90.8942 237.129 91.337 237.686C91.8043 238.243 92.4316 238.522 93.2187 238.522C96.1213 238.522 99.0485 237.105 102 234.272C104.558 231.753 106.711 228.641 108.457 224.936C110.228 221.231 111.114 218.035 111.114 215.347C111.114 215.08 111.102 214.875 111.077 214.729C110.782 214.875 110.351 215.008 109.786 215.129C109.417 217.671 108.617 220.359 107.387 223.193C106.256 225.929 104.768 228.581 102.923 231.148C101.078 233.715 99.1469 235.579 97.1298 236.742C95.9491 237.42 94.9406 237.759 94.1043 237.759C93.8583 237.759 93.7353 237.662 93.7353 237.468C93.7353 237.299 93.8583 237.202 94.1043 237.178C94.3502 237.178 94.9037 237.057 95.7646 236.814C98.0523 235.967 100.377 233.945 102.738 230.748C106.133 226.099 108.31 220.916 109.269 215.201C108.039 215.395 106.256 215.613 103.919 215.855C101.607 216.097 99.8356 216.352 98.6057 216.618C95.7031 217.345 94.2518 218.434 94.2518 219.887C94.2518 221.001 94.793 222.079 95.8753 223.12C96.7609 224.04 97.8432 224.658 99.1223 224.973C99.2699 224.997 99.3437 225.033 99.3437 225.082C99.3437 225.179 99.2453 225.227 99.0485 225.227C97.6956 225.227 96.4534 224.67 95.3219 223.556C94.2149 222.442 93.6615 221.195 93.6615 219.815C93.6615 218.41 94.7684 217.199 96.9822 216.182C98.7533 215.383 101.029 214.778 103.808 214.366C105.063 214.148 106.944 213.87 109.453 213.531C109.527 212.852 109.564 211.69 109.564 210.043C109.564 209.85 109.65 209.753 109.822 209.753C109.97 209.753 110.044 210.201 110.044 211.097C110.044 211.993 110.019 212.78 109.97 213.458C110.634 213.288 111.003 213.192 111.077 213.167C111.249 212.998 111.409 212.913 111.557 212.913C111.803 212.913 111.962 213.083 112.036 213.422C112.11 213.736 112.147 214.305 112.147 215.129ZM149.059 211.387L148.985 209.39C148.985 209.22 149.034 209.135 149.132 209.135C149.157 209.135 149.194 209.196 149.243 209.317C149.391 210.164 149.464 210.964 149.464 211.714C149.464 212.441 149.464 212.961 149.464 213.276C151.555 213.567 153.621 213.93 155.663 214.366C157.656 211.823 159.611 210.552 161.53 210.552C163.473 210.552 164.445 211.291 164.445 212.768C164.445 213.034 164.383 213.167 164.26 213.167C164.162 213.167 164.113 213.058 164.113 212.84C164.113 212.259 163.879 211.847 163.412 211.605C163.018 211.363 162.526 211.242 161.936 211.242C160.361 211.242 158.787 212.368 157.213 214.62C161.517 215.468 164.371 215.892 165.773 215.892C168.799 215.892 170.311 215.25 170.311 213.966C170.311 213.748 170.262 213.579 170.164 213.458C170.09 213.264 170.053 213.155 170.053 213.131C170.053 213.083 170.078 213.058 170.127 213.058C170.348 213.058 170.52 213.264 170.643 213.676C170.766 214.063 170.828 214.366 170.828 214.584C170.828 216.255 169.463 217.09 166.732 217.09C165.183 217.09 161.837 216.533 156.696 215.419C155.86 216.8 154.335 219.742 152.121 224.246C153.13 223.931 154.802 223.774 157.139 223.774C159.476 223.774 161.468 224.052 163.116 224.609C163.239 224.658 163.301 224.718 163.301 224.791C163.301 224.839 163.239 224.864 163.116 224.864L160.46 224.682C158.369 224.682 156.586 224.827 155.11 225.118C152.428 225.578 151.088 226.389 151.088 227.552C151.088 227.697 151.149 227.927 151.272 228.242V228.278C151.002 228.278 150.743 227.988 150.498 227.406C149.071 230.046 147.656 232.165 146.254 233.763C149.034 234.587 151.703 235.361 154.261 236.088C156.844 236.814 158.959 237.178 160.607 237.178C162.28 237.178 163.571 236.972 164.482 236.56C165.736 236.027 166.363 235.204 166.363 234.09C166.363 233.267 165.994 232.262 165.256 231.075L164.186 229.332C164.186 229.307 164.211 229.295 164.26 229.295C164.334 229.295 164.457 229.38 164.629 229.55C166.154 230.785 166.917 232.213 166.917 233.836C166.917 235.458 166.339 236.718 165.183 237.614C164.051 238.534 162.649 238.994 160.976 238.994C159.304 238.994 156.782 238.352 153.412 237.069C150.067 235.809 147.533 234.865 145.812 234.235C143.352 236.875 140.609 238.195 137.584 238.195C136.6 238.195 135.579 237.904 134.521 237.323C133.463 236.766 132.934 235.967 132.934 234.926C132.934 233.884 133.463 233.109 134.521 232.601C135.579 232.092 136.686 231.838 137.842 231.838C139.022 231.838 140.461 232.092 142.159 232.601C144.004 230.542 145.529 227.733 146.734 224.174C147.964 220.59 148.702 217.175 148.948 213.93C147.251 213.736 145.885 213.639 144.852 213.639C140.4 213.639 138.174 215.141 138.174 218.144C138.174 220.129 139.33 221.921 141.642 223.52C141.765 223.568 141.827 223.629 141.827 223.701C141.827 223.774 141.79 223.81 141.716 223.81C141.642 223.81 141.556 223.786 141.458 223.738C138.358 221.994 136.809 219.911 136.809 217.49C136.809 216.134 137.387 215.044 138.543 214.221C139.773 213.3 141.654 212.84 144.188 212.84C145.295 212.84 146.894 212.961 148.985 213.204C149.034 212.38 149.059 211.775 149.059 211.387ZM155.11 215.092C153.462 214.729 151.568 214.366 149.428 214.003C149.255 217.175 148.591 220.553 147.435 224.137C146.279 227.697 144.742 230.591 142.823 232.819L144.409 233.291C145.541 232.177 146.98 229.901 148.726 226.462C148.972 225.978 149.428 225.07 150.092 223.738C152.06 219.79 153.732 216.909 155.11 215.092ZM137.104 235.979C136.636 235.979 136.403 235.894 136.403 235.725C136.403 235.604 136.612 235.543 137.03 235.543C138.629 235.543 140.228 234.695 141.827 233C140.498 232.589 139.268 232.383 138.137 232.383C137.03 232.383 136.095 232.552 135.333 232.891C134.3 233.351 133.783 234.017 133.783 234.889C133.783 235.761 134.177 236.415 134.964 236.851C135.653 237.262 136.501 237.468 137.51 237.468C138.518 237.468 139.699 237.081 141.052 236.306C142.405 235.531 143.45 234.671 144.188 233.727L142.491 233.182C140.769 235.047 138.973 235.979 137.104 235.979Z" fill="white"/>
<path d="M-5.5 121L123.971 342.25H-134.971L-5.5 121Z" fill="black"/>
<path d="M335.194 4.83306L596.339 311.486L135.277 354.498L335.194 4.83306Z" fill="black"/>
</g>
<defs>
<clipPath id="clip0">
<rect width="329" height="336" fill="white"/>
</clipPath>
</defs>
</svg>
