<svg width="371" height="483" viewBox="0 0 371 483" fill="none" xmlns="http://www.w3.org/2000/svg">
<ellipse cx="178" cy="331" rx="177" ry="152" fill="black"/>
<path d="M84.208 325.68C83.776 323.952 82.576 323.088 80.608 323.088C77.2 323.088 74.464 324.792 72.4 328.2C70.528 331.176 69.592 334.296 69.592 337.56C69.592 340.824 70.312 343.392 71.752 345.264C73.24 347.424 75.496 348.504 78.52 348.504C84.184 348.504 89.68 344.688 95.008 337.056C102.064 326.688 106.672 316.44 108.832 306.312C108.88 306.12 109 305.592 109.192 304.728C109.384 303.864 109.552 303.12 109.696 302.496C110.032 301.056 110.968 300.336 112.504 300.336C113.368 300.336 113.8 300.696 113.8 301.416C113.8 301.944 113.632 302.904 113.296 304.296C112 310.584 109.744 317.112 106.528 323.88H107.68C111.616 323.88 116.056 323.184 121 321.792C129.208 319.44 133.312 315.48 133.312 309.912C133.312 306.504 131.728 303.504 128.56 300.912C126.256 298.896 123.112 297.312 119.128 296.16C115.672 295.248 112.048 294.792 108.256 294.792H106.888C106.552 299.832 105.328 305.544 103.216 311.928C100.96 318.408 98.344 324.192 95.368 329.28C91.48 336.192 87.544 341.064 83.56 343.896C81.256 345.528 79.336 346.344 77.8 346.344C77.368 346.344 77.152 346.176 77.152 345.84C77.152 345.552 77.344 345.384 77.728 345.336C79.216 345.096 80.296 344.808 80.968 344.472C85.384 342.312 89.896 337.272 94.504 329.352C97.912 323.352 100.6 317.28 102.568 311.136C104.536 304.944 105.664 299.52 105.952 294.864C101.632 295.056 97.264 295.848 92.848 297.24C88.48 298.632 84.904 300.768 82.12 303.648C80.296 305.472 79.384 307.44 79.384 309.552C79.384 311.664 80.008 313.44 81.256 314.88C82.312 316.272 83.752 317.28 85.576 317.904C86.392 318.192 87.112 318.432 87.736 318.624C88.408 318.768 88.744 318.912 88.744 319.056C88.744 319.296 88.552 319.368 88.168 319.272H88.096C85.168 318.84 82.432 317.592 79.888 315.528C77.344 313.464 76.072 311.04 76.072 308.256C76.072 306.24 76.912 304.392 78.592 302.712C81.424 299.832 85.408 297.672 90.544 296.232C95.68 294.792 100.864 293.952 106.096 293.712V289.104C106.096 288.72 106.24 288.528 106.528 288.528C106.816 288.528 106.96 289.296 106.96 290.832C106.96 292.368 106.96 293.304 106.96 293.64H110.2C113.656 293.64 117.256 294 121 294.72C125.272 295.68 128.752 297.096 131.44 298.968C135.088 301.512 136.912 304.608 136.912 308.256C136.912 311.856 135.16 315.048 131.656 317.832C128.968 320.04 125.488 321.792 121.216 323.088C116.944 324.336 112.36 324.96 107.464 324.96C106.984 324.96 106.504 324.96 106.024 324.96C98.152 341.184 89.056 349.296 78.736 349.296C75.184 349.296 72.352 348.144 70.24 345.84C68.128 343.584 67.072 340.56 67.072 336.768C67.072 332.928 68.248 329.472 70.6 326.4C73 323.328 76.096 321.792 79.888 321.792C80.992 321.792 82 322.104 82.912 322.728C83.92 323.256 84.424 324.072 84.424 325.176C84.424 325.464 84.352 325.632 84.208 325.68ZM152.629 322.44C152.629 323.832 152.197 325.128 151.333 326.328C150.517 327.528 149.725 328.128 148.957 328.128C148.813 328.128 148.741 328.032 148.741 327.84C149.029 327.12 149.365 326.352 149.749 325.536C150.133 324.672 150.325 323.712 150.325 322.656C150.325 321.552 149.917 321 149.101 321C147.997 321 146.245 322.344 143.845 325.032C141.493 327.672 139.837 329.832 138.877 331.512L135.781 339.792C135.685 339.888 135.493 339.936 135.205 339.936C134.965 339.936 134.581 339.768 134.053 339.432C133.573 339.096 133.333 338.808 133.333 338.568C133.429 338.376 133.549 338.064 133.693 337.632C133.885 337.2 134.053 336.864 134.197 336.624C136.069 332.64 137.341 329.424 138.013 326.976C138.733 324.48 139.093 322.032 139.093 319.632C138.901 320.4 138.037 322.104 136.501 324.744C134.197 328.728 132.901 330.72 132.613 330.72C132.325 330.72 132.181 330.648 132.181 330.504C132.181 330.408 133.165 328.752 135.133 325.536C137.149 322.32 138.517 319.32 139.237 316.536C139.525 315.288 140.005 314.664 140.677 314.664C141.445 314.664 141.829 315.624 141.829 317.544C141.829 321 140.725 325.248 138.517 330.288C141.109 327.072 142.909 324.912 143.917 323.808C146.653 320.88 148.789 319.416 150.325 319.416C151.861 319.416 152.629 320.424 152.629 322.44ZM170.579 324.888L170.795 323.52C170.795 322.752 170.531 322.128 170.003 321.648C169.523 321.12 168.947 320.856 168.275 320.856C167.699 326.712 166.283 331.2 164.027 334.32H166.259C165.635 334.704 165.155 334.896 164.819 334.896C164.531 334.896 164.315 334.872 164.171 334.824C164.075 334.776 163.955 334.752 163.811 334.752C163.859 334.8 163.715 334.968 163.379 335.256C163.091 335.496 162.203 336.264 160.715 337.56C159.227 338.856 157.835 339.504 156.539 339.504C154.667 339.504 153.731 338.304 153.731 335.904C153.731 332.976 154.835 329.976 157.043 326.904C156.275 325.032 155.891 323.064 155.891 321C155.891 318.888 156.299 317.064 157.115 315.528C158.699 312.504 160.667 310.992 163.019 310.992C165.995 310.992 167.723 313.536 168.203 318.624C170.603 318.72 171.803 319.968 171.803 322.368C171.803 324.336 171.491 325.32 170.867 325.32C170.675 325.32 170.579 325.176 170.579 324.888ZM163.091 312.576C161.555 312.576 160.139 314.088 158.843 317.112C158.027 318.936 157.619 320.688 157.619 322.368C157.619 324.048 157.691 325.296 157.835 326.112C160.763 322.176 163.835 319.728 167.051 318.768C166.091 314.64 164.771 312.576 163.091 312.576ZM167.123 320.784C166.067 320.928 164.411 321.912 162.155 323.736C159.947 325.512 158.579 326.928 158.051 327.984C159.059 331.632 160.283 333.624 161.723 333.96C162.875 332.904 164.051 330.816 165.251 327.696C166.499 324.576 167.123 322.272 167.123 320.784ZM157.547 328.632C155.963 331.32 155.171 333.456 155.171 335.04C155.171 336.576 155.699 337.344 156.755 337.344C158.051 337.344 159.611 336.336 161.435 334.32C159.851 334.128 158.555 332.232 157.547 328.632ZM178.81 338.928C184.09 339.072 186.73 339.36 186.73 339.792C186.73 340.224 186.298 340.44 185.434 340.44C184.282 340.152 182.002 340.008 178.594 340.008C177.298 345.096 174.538 349.68 170.314 353.76C166.09 357.888 161.314 361.224 155.986 363.768C151.666 365.736 148.09 366.72 145.258 366.72C141.13 366.72 139.066 364.992 139.066 361.536C139.066 358.512 140.65 355.32 143.818 351.96C146.122 349.464 148.978 347.208 152.386 345.192C159.154 341.256 167.074 339.168 176.146 338.928C176.578 337.488 176.89 335.784 177.082 333.816C177.274 331.8 177.514 330.096 177.802 328.704C176.41 329.952 175.642 330.576 175.498 330.576C175.45 330.576 175.426 330.456 175.426 330.216C175.426 329.928 175.81 329.4 176.578 328.632L178.234 326.976L180.034 321.288C180.322 320.76 180.898 320.496 181.762 320.496C182.674 320.496 183.13 320.712 183.13 321.144C183.13 321.576 182.962 322.344 182.626 323.448C182.29 324.264 181.906 324.816 181.474 325.104C181.138 326.352 180.682 328.632 180.106 331.944C179.578 335.208 179.146 337.536 178.81 338.928ZM144.826 353.184C141.946 356.112 140.506 358.752 140.506 361.104C140.506 363.504 142.354 364.704 146.05 364.704C152.338 364.704 158.434 362.136 164.338 357C170.194 351.912 174.058 346.272 175.93 340.08C172.138 340.224 168.034 340.968 163.618 342.312C155.602 344.76 149.338 348.384 144.826 353.184ZM184.282 310.776C186.01 309.96 186.97 309.552 187.162 309.552C187.402 309.552 187.522 309.624 187.522 309.768C187.522 309.912 186.994 310.584 185.938 311.784L184.858 314.016C184.426 314.976 183.874 315.456 183.202 315.456C182.242 315.456 181.762 314.952 181.762 313.944C181.762 313.464 182.026 312.912 182.554 312.288C183.082 311.616 183.658 311.112 184.282 310.776ZM208.851 329.208C208.899 329.208 208.923 329.28 208.923 329.424C208.923 329.568 208.731 329.976 208.347 330.648C206.859 333.048 204.699 335.28 201.867 337.344C199.035 339.36 196.371 340.368 193.875 340.368C190.467 340.368 188.763 338.16 188.763 333.744C188.763 332.256 188.931 330.672 189.267 328.992C188.835 328.608 188.451 328.08 188.115 327.408C188.163 327.456 188.283 327.528 188.475 327.624C188.667 327.672 188.835 327.744 188.979 327.84C189.171 327.888 189.363 327.936 189.555 327.984C190.035 325.632 191.499 323.208 193.947 320.712C196.395 318.216 198.771 316.968 201.075 316.968C201.603 316.968 201.867 317.04 201.867 317.184C201.867 317.28 201.531 317.52 200.859 317.904C199.083 318.864 197.427 320.352 195.891 322.368C194.259 324.384 193.083 326.4 192.363 328.416L192.507 328.56C194.811 328.56 197.211 327.456 199.707 325.248C202.203 323.04 203.451 320.784 203.451 318.48C203.451 317.808 203.259 317.184 202.875 316.608C202.539 315.984 201.963 315.672 201.147 315.672C200.331 315.672 199.299 316.056 198.051 316.824C196.851 317.544 196.179 317.904 196.035 317.904C195.939 317.904 195.891 317.88 195.891 317.832C195.891 317.256 196.659 316.656 198.195 316.032C199.779 315.408 201.051 315.096 202.011 315.096C203.019 315.096 203.883 315.408 204.603 316.032C205.323 316.656 205.683 317.52 205.683 318.624C205.683 321.168 204.099 323.568 200.931 325.824C197.811 328.08 194.859 329.328 192.075 329.568C191.691 330.72 191.499 331.824 191.499 332.88C191.499 336.864 192.939 338.856 195.819 338.856C198.027 338.856 200.235 337.992 202.443 336.264C204.651 334.488 206.427 332.472 207.771 330.216C208.203 329.544 208.563 329.208 208.851 329.208ZM225.694 319.632C225.694 320.496 225.502 321.528 225.118 322.728C224.734 323.88 224.23 324.456 223.606 324.456C222.982 324.456 222.67 324.096 222.67 323.376C222.67 323.088 222.814 322.44 223.102 321.432C223.438 320.424 223.606 319.584 223.606 318.912C223.606 316.752 222.742 315.672 221.014 315.672C220.15 315.672 219.046 316.032 217.702 316.752C216.406 317.424 215.686 317.76 215.542 317.76C215.398 317.76 215.326 317.688 215.326 317.544C215.326 316.872 216.142 316.272 217.774 315.744C219.454 315.216 220.798 314.952 221.806 314.952C224.398 314.952 225.694 316.512 225.694 319.632ZM212.518 341.016C209.206 341.016 207.55 339.144 207.55 335.4C207.55 331.656 208.87 327.696 211.51 323.52C214.15 319.296 217.198 317.184 220.654 317.184C221.182 317.184 221.446 317.28 221.446 317.472C221.446 317.616 220.966 317.976 220.006 318.552C217.654 319.992 215.518 322.224 213.598 325.248C211.726 328.272 210.79 331.032 210.79 333.528C210.79 337.416 212.254 339.36 215.182 339.36C216.958 339.36 218.926 338.664 221.086 337.272C224.062 335.352 226.414 333.024 228.142 330.288C228.574 329.568 228.91 329.208 229.15 329.208L229.294 329.352C229.294 329.544 229.078 329.952 228.646 330.576C226.918 333.216 224.47 335.616 221.302 337.776C218.182 339.936 215.254 341.016 212.518 341.016ZM254.006 315.816C254.006 316.632 249.95 318.192 241.838 320.496C239.678 324.672 238.358 327.336 237.878 328.488C236.63 331.464 236.006 334.32 236.006 337.056C236.006 338.64 236.534 339.432 237.59 339.432C238.886 339.432 240.59 338.52 242.702 336.696L245.942 333.888C246.086 333.888 246.158 333.96 246.158 334.104C246.158 334.248 246.086 334.464 245.942 334.752C245.174 335.904 243.878 337.2 242.054 338.64C240.23 340.032 238.79 340.728 237.734 340.728C235.334 340.728 234.134 339.264 234.134 336.336C234.134 334.224 234.662 331.608 235.718 328.488C235.238 327.144 234.278 326.16 232.838 325.536C232.406 325.344 231.758 325.08 230.894 324.744C230.03 324.408 229.334 324.12 228.806 323.88C228.278 323.64 228.014 323.16 228.014 322.44C228.014 321.672 228.35 321.216 229.022 321.072H230.966C233.462 321.072 236.126 320.784 238.958 320.208L245.87 304.728C246.206 303.864 246.998 303.432 248.246 303.432C249.542 303.432 250.19 303.672 250.19 304.152C250.19 304.296 249.278 306.36 247.454 310.344C245.678 314.28 244.694 316.344 244.502 316.536L243.278 317.688L242.414 319.416C243.566 319.08 247.07 317.88 252.926 315.816C253.406 315.72 253.694 315.672 253.79 315.672C253.934 315.672 254.006 315.72 254.006 315.816ZM238.454 321.432C235.766 322.056 233.342 322.536 231.182 322.872C233.678 324.168 235.286 325.704 236.006 327.48C236.486 326.136 237.302 324.12 238.454 321.432ZM266.661 328.272C266.805 328.272 266.877 328.368 266.877 328.56C266.877 328.752 266.829 328.92 266.733 329.064C265.101 331.8 263.085 333.408 260.685 333.888C260.541 335.568 260.013 336.984 259.101 338.136C258.237 339.288 256.797 339.864 254.781 339.864C252.813 339.864 250.941 338.928 249.165 337.056C247.389 335.136 246.501 333.048 246.501 330.792C246.501 329.304 246.885 328.56 247.653 328.56C248.133 328.56 248.613 328.92 249.093 329.64C250.533 326.28 252.573 322.488 255.213 318.264C256.893 315.672 258.861 314.376 261.117 314.376C261.597 314.376 262.149 314.568 262.773 314.952C263.445 315.288 263.781 315.672 263.781 316.104C263.781 316.44 263.565 316.608 263.133 316.608C262.749 316.608 262.461 316.584 262.269 316.536H261.693C260.589 316.536 259.629 316.872 258.813 317.544C258.045 318.168 257.661 318.84 257.661 319.56C257.661 320.232 257.733 320.784 257.877 321.216L259.605 326.976C260.277 329.376 260.613 331.344 260.613 332.88C261.909 332.688 262.917 332.28 263.637 331.656C264.405 331.032 265.269 330 266.229 328.56C266.373 328.368 266.517 328.272 266.661 328.272ZM257.661 333.816C257.709 333.576 257.733 333.072 257.733 332.304C257.733 331.536 257.373 329.736 256.653 326.904C255.981 324.072 255.645 322.296 255.645 321.576C255.645 320.856 255.669 320.4 255.717 320.208C254.469 321.504 252.429 324.96 249.597 330.576C251.613 331.728 253.125 332.544 254.133 333.024C255.141 333.456 256.317 333.72 257.661 333.816ZM253.773 337.488C255.645 337.488 256.917 336.552 257.589 334.68C253.749 334.68 250.821 333.888 248.805 332.304C248.901 333.408 249.477 334.56 250.533 335.76C251.589 336.912 252.669 337.488 253.773 337.488Z" fill="white"/>
<line x1="0.541071" y1="259.802" x2="112.541" y2="0.801545" stroke="black"/>
<line y1="-0.5" x2="168.573" y2="-0.5" transform="matrix(0.332199 -0.943209 0.955426 0.295231 135 160)" stroke="black"/>
<line y1="-0.5" x2="168.573" y2="-0.5" transform="matrix(0.332199 -0.943209 0.955426 0.295231 135 160)" stroke="black"/>
<line y1="-0.5" x2="168.573" y2="-0.5" transform="matrix(0.332199 -0.943209 0.955426 0.295231 135 160)" stroke="black"/>
<line x1="212.523" y1="150.849" x2="257.523" y2="8.84894" stroke="black"/>
<line x1="281.521" y1="178.858" x2="325.521" y2="30.8575" stroke="black"/>
<line x1="370.5" y1="291" x2="370.5" y2="47" stroke="black"/>
</svg>
