<svg width="354" height="304" viewBox="0 0 354 304" fill="none" xmlns="http://www.w3.org/2000/svg">
<ellipse cx="177" cy="152" rx="177" ry="152" fill="black"/>
<path d="M83.208 146.68C82.776 144.952 81.576 144.088 79.608 144.088C76.2 144.088 73.464 145.792 71.4 149.2C69.528 152.176 68.592 155.296 68.592 158.56C68.592 161.824 69.312 164.392 70.752 166.264C72.24 168.424 74.496 169.504 77.52 169.504C83.184 169.504 88.68 165.688 94.008 158.056C101.064 147.688 105.672 137.44 107.832 127.312C107.88 127.12 108 126.592 108.192 125.728C108.384 124.864 108.552 124.12 108.696 123.496C109.032 122.056 109.968 121.336 111.504 121.336C112.368 121.336 112.8 121.696 112.8 122.416C112.8 122.944 112.632 123.904 112.296 125.296C111 131.584 108.744 138.112 105.528 144.88H106.68C110.616 144.88 115.056 144.184 120 142.792C128.208 140.44 132.312 136.48 132.312 130.912C132.312 127.504 130.728 124.504 127.56 121.912C125.256 119.896 122.112 118.312 118.128 117.16C114.672 116.248 111.048 115.792 107.256 115.792H105.888C105.552 120.832 104.328 126.544 102.216 132.928C99.96 139.408 97.344 145.192 94.368 150.28C90.48 157.192 86.544 162.064 82.56 164.896C80.256 166.528 78.336 167.344 76.8 167.344C76.368 167.344 76.152 167.176 76.152 166.84C76.152 166.552 76.344 166.384 76.728 166.336C78.216 166.096 79.296 165.808 79.968 165.472C84.384 163.312 88.896 158.272 93.504 150.352C96.912 144.352 99.6 138.28 101.568 132.136C103.536 125.944 104.664 120.52 104.952 115.864C100.632 116.056 96.264 116.848 91.848 118.24C87.48 119.632 83.904 121.768 81.12 124.648C79.296 126.472 78.384 128.44 78.384 130.552C78.384 132.664 79.008 134.44 80.256 135.88C81.312 137.272 82.752 138.28 84.576 138.904C85.392 139.192 86.112 139.432 86.736 139.624C87.408 139.768 87.744 139.912 87.744 140.056C87.744 140.296 87.552 140.368 87.168 140.272H87.096C84.168 139.84 81.432 138.592 78.888 136.528C76.344 134.464 75.072 132.04 75.072 129.256C75.072 127.24 75.912 125.392 77.592 123.712C80.424 120.832 84.408 118.672 89.544 117.232C94.68 115.792 99.864 114.952 105.096 114.712V110.104C105.096 109.72 105.24 109.528 105.528 109.528C105.816 109.528 105.96 110.296 105.96 111.832C105.96 113.368 105.96 114.304 105.96 114.64H109.2C112.656 114.64 116.256 115 120 115.72C124.272 116.68 127.752 118.096 130.44 119.968C134.088 122.512 135.912 125.608 135.912 129.256C135.912 132.856 134.16 136.048 130.656 138.832C127.968 141.04 124.488 142.792 120.216 144.088C115.944 145.336 111.36 145.96 106.464 145.96C105.984 145.96 105.504 145.96 105.024 145.96C97.152 162.184 88.056 170.296 77.736 170.296C74.184 170.296 71.352 169.144 69.24 166.84C67.128 164.584 66.072 161.56 66.072 157.768C66.072 153.928 67.248 150.472 69.6 147.4C72 144.328 75.096 142.792 78.888 142.792C79.992 142.792 81 143.104 81.912 143.728C82.92 144.256 83.424 145.072 83.424 146.176C83.424 146.464 83.352 146.632 83.208 146.68ZM151.629 143.44C151.629 144.832 151.197 146.128 150.333 147.328C149.517 148.528 148.725 149.128 147.957 149.128C147.813 149.128 147.741 149.032 147.741 148.84C148.029 148.12 148.365 147.352 148.749 146.536C149.133 145.672 149.325 144.712 149.325 143.656C149.325 142.552 148.917 142 148.101 142C146.997 142 145.245 143.344 142.845 146.032C140.493 148.672 138.837 150.832 137.877 152.512L134.781 160.792C134.685 160.888 134.493 160.936 134.205 160.936C133.965 160.936 133.581 160.768 133.053 160.432C132.573 160.096 132.333 159.808 132.333 159.568C132.429 159.376 132.549 159.064 132.693 158.632C132.885 158.2 133.053 157.864 133.197 157.624C135.069 153.64 136.341 150.424 137.013 147.976C137.733 145.48 138.093 143.032 138.093 140.632C137.901 141.4 137.037 143.104 135.501 145.744C133.197 149.728 131.901 151.72 131.613 151.72C131.325 151.72 131.181 151.648 131.181 151.504C131.181 151.408 132.165 149.752 134.133 146.536C136.149 143.32 137.517 140.32 138.237 137.536C138.525 136.288 139.005 135.664 139.677 135.664C140.445 135.664 140.829 136.624 140.829 138.544C140.829 142 139.725 146.248 137.517 151.288C140.109 148.072 141.909 145.912 142.917 144.808C145.653 141.88 147.789 140.416 149.325 140.416C150.861 140.416 151.629 141.424 151.629 143.44ZM169.579 145.888L169.795 144.52C169.795 143.752 169.531 143.128 169.003 142.648C168.523 142.12 167.947 141.856 167.275 141.856C166.699 147.712 165.283 152.2 163.027 155.32H165.259C164.635 155.704 164.155 155.896 163.819 155.896C163.531 155.896 163.315 155.872 163.171 155.824C163.075 155.776 162.955 155.752 162.811 155.752C162.859 155.8 162.715 155.968 162.379 156.256C162.091 156.496 161.203 157.264 159.715 158.56C158.227 159.856 156.835 160.504 155.539 160.504C153.667 160.504 152.731 159.304 152.731 156.904C152.731 153.976 153.835 150.976 156.043 147.904C155.275 146.032 154.891 144.064 154.891 142C154.891 139.888 155.299 138.064 156.115 136.528C157.699 133.504 159.667 131.992 162.019 131.992C164.995 131.992 166.723 134.536 167.203 139.624C169.603 139.72 170.803 140.968 170.803 143.368C170.803 145.336 170.491 146.32 169.867 146.32C169.675 146.32 169.579 146.176 169.579 145.888ZM162.091 133.576C160.555 133.576 159.139 135.088 157.843 138.112C157.027 139.936 156.619 141.688 156.619 143.368C156.619 145.048 156.691 146.296 156.835 147.112C159.763 143.176 162.835 140.728 166.051 139.768C165.091 135.64 163.771 133.576 162.091 133.576ZM166.123 141.784C165.067 141.928 163.411 142.912 161.155 144.736C158.947 146.512 157.579 147.928 157.051 148.984C158.059 152.632 159.283 154.624 160.723 154.96C161.875 153.904 163.051 151.816 164.251 148.696C165.499 145.576 166.123 143.272 166.123 141.784ZM156.547 149.632C154.963 152.32 154.171 154.456 154.171 156.04C154.171 157.576 154.699 158.344 155.755 158.344C157.051 158.344 158.611 157.336 160.435 155.32C158.851 155.128 157.555 153.232 156.547 149.632ZM177.81 159.928C183.09 160.072 185.73 160.36 185.73 160.792C185.73 161.224 185.298 161.44 184.434 161.44C183.282 161.152 181.002 161.008 177.594 161.008C176.298 166.096 173.538 170.68 169.314 174.76C165.09 178.888 160.314 182.224 154.986 184.768C150.666 186.736 147.09 187.72 144.258 187.72C140.13 187.72 138.066 185.992 138.066 182.536C138.066 179.512 139.65 176.32 142.818 172.96C145.122 170.464 147.978 168.208 151.386 166.192C158.154 162.256 166.074 160.168 175.146 159.928C175.578 158.488 175.89 156.784 176.082 154.816C176.274 152.8 176.514 151.096 176.802 149.704C175.41 150.952 174.642 151.576 174.498 151.576C174.45 151.576 174.426 151.456 174.426 151.216C174.426 150.928 174.81 150.4 175.578 149.632L177.234 147.976L179.034 142.288C179.322 141.76 179.898 141.496 180.762 141.496C181.674 141.496 182.13 141.712 182.13 142.144C182.13 142.576 181.962 143.344 181.626 144.448C181.29 145.264 180.906 145.816 180.474 146.104C180.138 147.352 179.682 149.632 179.106 152.944C178.578 156.208 178.146 158.536 177.81 159.928ZM143.826 174.184C140.946 177.112 139.506 179.752 139.506 182.104C139.506 184.504 141.354 185.704 145.05 185.704C151.338 185.704 157.434 183.136 163.338 178C169.194 172.912 173.058 167.272 174.93 161.08C171.138 161.224 167.034 161.968 162.618 163.312C154.602 165.76 148.338 169.384 143.826 174.184ZM183.282 131.776C185.01 130.96 185.97 130.552 186.162 130.552C186.402 130.552 186.522 130.624 186.522 130.768C186.522 130.912 185.994 131.584 184.938 132.784L183.858 135.016C183.426 135.976 182.874 136.456 182.202 136.456C181.242 136.456 180.762 135.952 180.762 134.944C180.762 134.464 181.026 133.912 181.554 133.288C182.082 132.616 182.658 132.112 183.282 131.776ZM207.851 150.208C207.899 150.208 207.923 150.28 207.923 150.424C207.923 150.568 207.731 150.976 207.347 151.648C205.859 154.048 203.699 156.28 200.867 158.344C198.035 160.36 195.371 161.368 192.875 161.368C189.467 161.368 187.763 159.16 187.763 154.744C187.763 153.256 187.931 151.672 188.267 149.992C187.835 149.608 187.451 149.08 187.115 148.408C187.163 148.456 187.283 148.528 187.475 148.624C187.667 148.672 187.835 148.744 187.979 148.84C188.171 148.888 188.363 148.936 188.555 148.984C189.035 146.632 190.499 144.208 192.947 141.712C195.395 139.216 197.771 137.968 200.075 137.968C200.603 137.968 200.867 138.04 200.867 138.184C200.867 138.28 200.531 138.52 199.859 138.904C198.083 139.864 196.427 141.352 194.891 143.368C193.259 145.384 192.083 147.4 191.363 149.416L191.507 149.56C193.811 149.56 196.211 148.456 198.707 146.248C201.203 144.04 202.451 141.784 202.451 139.48C202.451 138.808 202.259 138.184 201.875 137.608C201.539 136.984 200.963 136.672 200.147 136.672C199.331 136.672 198.299 137.056 197.051 137.824C195.851 138.544 195.179 138.904 195.035 138.904C194.939 138.904 194.891 138.88 194.891 138.832C194.891 138.256 195.659 137.656 197.195 137.032C198.779 136.408 200.051 136.096 201.011 136.096C202.019 136.096 202.883 136.408 203.603 137.032C204.323 137.656 204.683 138.52 204.683 139.624C204.683 142.168 203.099 144.568 199.931 146.824C196.811 149.08 193.859 150.328 191.075 150.568C190.691 151.72 190.499 152.824 190.499 153.88C190.499 157.864 191.939 159.856 194.819 159.856C197.027 159.856 199.235 158.992 201.443 157.264C203.651 155.488 205.427 153.472 206.771 151.216C207.203 150.544 207.563 150.208 207.851 150.208ZM224.694 140.632C224.694 141.496 224.502 142.528 224.118 143.728C223.734 144.88 223.23 145.456 222.606 145.456C221.982 145.456 221.67 145.096 221.67 144.376C221.67 144.088 221.814 143.44 222.102 142.432C222.438 141.424 222.606 140.584 222.606 139.912C222.606 137.752 221.742 136.672 220.014 136.672C219.15 136.672 218.046 137.032 216.702 137.752C215.406 138.424 214.686 138.76 214.542 138.76C214.398 138.76 214.326 138.688 214.326 138.544C214.326 137.872 215.142 137.272 216.774 136.744C218.454 136.216 219.798 135.952 220.806 135.952C223.398 135.952 224.694 137.512 224.694 140.632ZM211.518 162.016C208.206 162.016 206.55 160.144 206.55 156.4C206.55 152.656 207.87 148.696 210.51 144.52C213.15 140.296 216.198 138.184 219.654 138.184C220.182 138.184 220.446 138.28 220.446 138.472C220.446 138.616 219.966 138.976 219.006 139.552C216.654 140.992 214.518 143.224 212.598 146.248C210.726 149.272 209.79 152.032 209.79 154.528C209.79 158.416 211.254 160.36 214.182 160.36C215.958 160.36 217.926 159.664 220.086 158.272C223.062 156.352 225.414 154.024 227.142 151.288C227.574 150.568 227.91 150.208 228.15 150.208L228.294 150.352C228.294 150.544 228.078 150.952 227.646 151.576C225.918 154.216 223.47 156.616 220.302 158.776C217.182 160.936 214.254 162.016 211.518 162.016ZM253.006 136.816C253.006 137.632 248.95 139.192 240.838 141.496C238.678 145.672 237.358 148.336 236.878 149.488C235.63 152.464 235.006 155.32 235.006 158.056C235.006 159.64 235.534 160.432 236.59 160.432C237.886 160.432 239.59 159.52 241.702 157.696L244.942 154.888C245.086 154.888 245.158 154.96 245.158 155.104C245.158 155.248 245.086 155.464 244.942 155.752C244.174 156.904 242.878 158.2 241.054 159.64C239.23 161.032 237.79 161.728 236.734 161.728C234.334 161.728 233.134 160.264 233.134 157.336C233.134 155.224 233.662 152.608 234.718 149.488C234.238 148.144 233.278 147.16 231.838 146.536C231.406 146.344 230.758 146.08 229.894 145.744C229.03 145.408 228.334 145.12 227.806 144.88C227.278 144.64 227.014 144.16 227.014 143.44C227.014 142.672 227.35 142.216 228.022 142.072H229.966C232.462 142.072 235.126 141.784 237.958 141.208L244.87 125.728C245.206 124.864 245.998 124.432 247.246 124.432C248.542 124.432 249.19 124.672 249.19 125.152C249.19 125.296 248.278 127.36 246.454 131.344C244.678 135.28 243.694 137.344 243.502 137.536L242.278 138.688L241.414 140.416C242.566 140.08 246.07 138.88 251.926 136.816C252.406 136.72 252.694 136.672 252.79 136.672C252.934 136.672 253.006 136.72 253.006 136.816ZM237.454 142.432C234.766 143.056 232.342 143.536 230.182 143.872C232.678 145.168 234.286 146.704 235.006 148.48C235.486 147.136 236.302 145.12 237.454 142.432ZM265.661 149.272C265.805 149.272 265.877 149.368 265.877 149.56C265.877 149.752 265.829 149.92 265.733 150.064C264.101 152.8 262.085 154.408 259.685 154.888C259.541 156.568 259.013 157.984 258.101 159.136C257.237 160.288 255.797 160.864 253.781 160.864C251.813 160.864 249.941 159.928 248.165 158.056C246.389 156.136 245.501 154.048 245.501 151.792C245.501 150.304 245.885 149.56 246.653 149.56C247.133 149.56 247.613 149.92 248.093 150.64C249.533 147.28 251.573 143.488 254.213 139.264C255.893 136.672 257.861 135.376 260.117 135.376C260.597 135.376 261.149 135.568 261.773 135.952C262.445 136.288 262.781 136.672 262.781 137.104C262.781 137.44 262.565 137.608 262.133 137.608C261.749 137.608 261.461 137.584 261.269 137.536H260.693C259.589 137.536 258.629 137.872 257.813 138.544C257.045 139.168 256.661 139.84 256.661 140.56C256.661 141.232 256.733 141.784 256.877 142.216L258.605 147.976C259.277 150.376 259.613 152.344 259.613 153.88C260.909 153.688 261.917 153.28 262.637 152.656C263.405 152.032 264.269 151 265.229 149.56C265.373 149.368 265.517 149.272 265.661 149.272ZM256.661 154.816C256.709 154.576 256.733 154.072 256.733 153.304C256.733 152.536 256.373 150.736 255.653 147.904C254.981 145.072 254.645 143.296 254.645 142.576C254.645 141.856 254.669 141.4 254.717 141.208C253.469 142.504 251.429 145.96 248.597 151.576C250.613 152.728 252.125 153.544 253.133 154.024C254.141 154.456 255.317 154.72 256.661 154.816ZM252.773 158.488C254.645 158.488 255.917 157.552 256.589 155.68C252.749 155.68 249.821 154.888 247.805 153.304C247.901 154.408 248.477 155.56 249.533 156.76C250.589 157.912 251.669 158.488 252.773 158.488Z" fill="white"/>
</svg>
