<svg width="321" height="333" viewBox="0 0 321 333" fill="none" xmlns="http://www.w3.org/2000/svg">
<path d="M255.382 110.739L130.144 332.272L0.901057 111.849L255.382 110.739Z" fill="#040404"/>
<path d="M98.168 157.768L100.04 157.696H100.4C100.736 157.696 100.904 157.768 100.904 157.912C100.904 158.392 100.472 158.656 99.608 158.704C92.696 159.184 88.616 159.52 87.368 159.712C81.608 166.912 76.016 172.528 70.592 176.56C71.888 177.184 74.024 177.76 77 178.288C77.432 178.336 77.648 178.48 77.648 178.72C77.648 178.96 77.408 179.08 76.928 179.08C75.008 179.08 72.656 178.432 69.872 177.136C65.168 180.496 61.088 182.176 57.632 182.176C55.424 182.176 54.32 181.48 54.32 180.088C54.32 179.08 54.608 178.36 55.184 177.928C55.04 178.36 54.968 178.816 54.968 179.296C54.968 180.592 55.88 181.24 57.704 181.24C60.872 181.24 64.52 179.68 68.648 176.56C68.168 176.32 67.424 175.864 66.416 175.192C63.152 177.544 60.56 178.72 58.64 178.72C58.304 178.72 58.136 178.624 58.136 178.432C58.136 178.096 58.376 177.904 58.856 177.856C61.256 177.04 63.488 175.888 65.552 174.4C64.112 173.008 63.392 171.568 63.392 170.08C63.392 167.344 65.576 164.872 69.944 162.664C72.824 161.176 76.208 160.048 80.096 159.28C86.768 150.496 91.88 141.472 95.432 132.208C95.624 131.776 96.44 129.184 97.88 124.432C97.928 124.096 98.12 123.928 98.456 123.928C98.504 123.976 98.528 124.024 98.528 124.072C98.528 127.912 96.368 133.936 92.048 142.144C88.88 148.24 85.448 153.856 81.752 158.992L85.208 158.632C88.376 154.312 91.856 148.576 95.648 141.424C99.488 134.272 101.408 128.92 101.408 125.368C101.408 123.16 100.424 121.912 98.456 121.624C98.024 121.528 97.808 121.36 97.808 121.12C97.808 120.88 98.072 120.76 98.6 120.76C100.328 120.76 101.696 121.312 102.704 122.416C103.664 123.616 104.144 125.08 104.144 126.808C104.144 130.696 102.248 136.144 98.456 143.152C95.768 148 92.432 153.064 88.448 158.344C92.672 157.96 95.912 157.768 98.168 157.768ZM119.264 170.872C119.264 171.64 118.736 172.72 117.68 174.112C116.624 175.552 115.64 176.512 114.728 176.992C113.816 177.52 112.688 177.784 111.344 177.784C110 177.784 108.416 177.04 106.592 175.552C104.768 174.112 103.4 172.408 102.488 170.44C101.624 168.52 101.192 165.76 101.192 162.16C101.192 158.512 101.552 153.64 102.272 147.544C102.992 141.4 103.4 137.608 103.496 136.168C103.592 134.68 103.784 133.936 104.072 133.936C104.504 133.936 104.744 134.44 104.792 135.448V146.896C104.792 159.568 105.824 168.208 107.888 172.816C109.136 175.648 110.576 177.064 112.208 177.064C114.368 177.064 116.72 175 119.264 170.872ZM83.984 160.216C82.88 160.456 81.584 160.792 80.096 161.224C75.92 166.6 71.72 170.968 67.496 174.328C67.928 174.904 68.576 175.456 69.44 175.984C73.856 172.48 78.704 167.224 83.984 160.216ZM78.224 161.8C70.448 164.872 66.56 168.136 66.56 171.592C66.56 172.168 66.68 172.768 66.92 173.392C70.568 170.464 74.336 166.6 78.224 161.8ZM136.114 159.784L134.026 159.64C132.202 162.616 129.85 165.184 126.97 167.344C124.138 169.504 121.186 170.584 118.114 170.584C117.154 170.584 116.362 170.488 115.738 170.296L115.522 171.808C115.378 172.576 115.138 172.96 114.802 172.96C114.514 172.96 114.37 172.624 114.37 171.952C114.37 171.328 114.442 170.608 114.586 169.792C113.482 169.12 112.93 168.28 112.93 167.272C112.93 165.688 114.202 164.128 116.746 162.592C117.802 159.52 118.786 156.856 119.698 154.6C118.69 155.608 117.61 156.784 116.458 158.128C116.218 158.368 116.026 158.488 115.882 158.488C115.738 158.488 115.666 158.392 115.666 158.2C115.666 157.432 117.274 155.584 120.49 152.656C126.202 138.496 130.954 127.84 134.746 120.688C135.274 119.872 136.114 119.464 137.266 119.464C138.466 119.464 139.066 119.68 139.066 120.112C139.066 120.16 137.41 123.424 134.098 129.904C130.786 136.336 127.618 142.792 124.594 149.272C128.434 146.536 131.482 145.168 133.738 145.168C135.994 145.168 137.122 146.656 137.122 149.632C137.122 152.56 136.258 155.608 134.53 158.776C135.874 158.824 136.546 159.064 136.546 159.496C136.546 159.688 136.402 159.784 136.114 159.784ZM131.866 158.704C132.586 156.688 132.946 154.36 132.946 151.72C132.946 149.08 132.106 147.76 130.426 147.76C128.794 147.76 126.562 148.864 123.73 151.072C121.33 156.304 119.794 159.736 119.122 161.368C122.818 159.832 127.066 158.944 131.866 158.704ZM117.826 169.216C120.61 169.216 123.298 168.28 125.89 166.408C128.53 164.488 130.378 162.232 131.434 159.64C126.73 160.024 122.29 161.368 118.114 163.672L116.098 169.072C116.77 169.168 117.346 169.216 117.826 169.216ZM115.81 165.256C114.946 166.072 114.514 166.744 114.514 167.272C114.514 167.752 114.658 168.136 114.946 168.424C115.09 167.704 115.378 166.648 115.81 165.256ZM153.649 154.888L153.865 153.52C153.865 152.752 153.601 152.128 153.073 151.648C152.593 151.12 152.017 150.856 151.345 150.856C150.769 156.712 149.353 161.2 147.097 164.32H149.329C148.705 164.704 148.225 164.896 147.889 164.896C147.601 164.896 147.385 164.872 147.241 164.824C147.145 164.776 147.025 164.752 146.881 164.752C146.929 164.8 146.785 164.968 146.449 165.256C146.161 165.496 145.273 166.264 143.785 167.56C142.297 168.856 140.905 169.504 139.609 169.504C137.737 169.504 136.801 168.304 136.801 165.904C136.801 162.976 137.905 159.976 140.113 156.904C139.345 155.032 138.961 153.064 138.961 151C138.961 148.888 139.369 147.064 140.185 145.528C141.769 142.504 143.737 140.992 146.089 140.992C149.065 140.992 150.793 143.536 151.273 148.624C153.673 148.72 154.873 149.968 154.873 152.368C154.873 154.336 154.561 155.32 153.937 155.32C153.745 155.32 153.649 155.176 153.649 154.888ZM146.161 142.576C144.625 142.576 143.209 144.088 141.913 147.112C141.097 148.936 140.689 150.688 140.689 152.368C140.689 154.048 140.761 155.296 140.905 156.112C143.833 152.176 146.905 149.728 150.121 148.768C149.161 144.64 147.841 142.576 146.161 142.576ZM150.193 150.784C149.137 150.928 147.481 151.912 145.225 153.736C143.017 155.512 141.649 156.928 141.121 157.984C142.129 161.632 143.353 163.624 144.793 163.96C145.945 162.904 147.121 160.816 148.321 157.696C149.569 154.576 150.193 152.272 150.193 150.784ZM140.617 158.632C139.033 161.32 138.241 163.456 138.241 165.04C138.241 166.576 138.769 167.344 139.825 167.344C141.121 167.344 142.681 166.336 144.505 164.32C142.921 164.128 141.625 162.232 140.617 158.632ZM178.296 164.896V165.04C176.616 167.344 174.768 168.496 172.752 168.496C170.736 168.496 169.728 166.72 169.728 163.168C169.728 161.728 169.848 159.688 170.088 157.048C168.264 160.504 165.264 163.864 161.088 167.128C160.656 167.464 159.84 168.088 158.64 169C158.4 169.192 157.968 169.288 157.344 169.288C156.768 169.288 156.48 169.144 156.48 168.856C156.48 167.128 157.248 164.752 158.784 161.728C160.368 158.704 161.352 156.544 161.736 155.248C162.12 153.904 162.312 152.032 162.312 149.632C162.12 150.4 161.256 152.104 159.72 154.744C157.416 158.728 156.12 160.72 155.832 160.72C155.544 160.72 155.4 160.624 155.4 160.432L157.56 156.76C159.864 152.728 161.352 149.344 162.024 146.608C162.312 145.36 162.888 144.736 163.752 144.736C164.616 144.736 165.048 145.84 165.048 148.048C165.048 150.208 164.424 153.256 163.176 157.192L160.152 166.624C164.184 163.552 167.544 159.784 170.232 155.32C170.712 151.96 171.36 149.752 172.176 148.696C172.464 148.36 172.992 148.192 173.76 148.192C174.576 148.192 174.984 148.456 174.984 148.984C174.984 150.424 174.528 151.744 173.616 152.944C172.56 156.544 172.032 160.048 172.032 163.456C172.032 165.76 172.752 166.912 174.192 166.912C174.912 166.912 175.632 166.6 176.352 165.976C177.12 165.352 177.6 164.944 177.792 164.752C178.032 164.56 178.128 164.464 178.08 164.464C178.224 164.464 178.296 164.608 178.296 164.896ZM202.623 145.816C202.623 146.632 198.567 148.192 190.455 150.496C188.295 154.672 186.975 157.336 186.495 158.488C185.247 161.464 184.623 164.32 184.623 167.056C184.623 168.64 185.151 169.432 186.207 169.432C187.503 169.432 189.207 168.52 191.319 166.696L194.559 163.888C194.703 163.888 194.775 163.96 194.775 164.104C194.775 164.248 194.703 164.464 194.559 164.752C193.791 165.904 192.495 167.2 190.671 168.64C188.847 170.032 187.407 170.728 186.351 170.728C183.951 170.728 182.751 169.264 182.751 166.336C182.751 164.224 183.279 161.608 184.335 158.488C183.855 157.144 182.895 156.16 181.455 155.536C181.023 155.344 180.375 155.08 179.511 154.744C178.647 154.408 177.951 154.12 177.423 153.88C176.895 153.64 176.631 153.16 176.631 152.44C176.631 151.672 176.967 151.216 177.639 151.072H179.583C182.079 151.072 184.743 150.784 187.575 150.208L194.487 134.728C194.823 133.864 195.615 133.432 196.863 133.432C198.159 133.432 198.807 133.672 198.807 134.152C198.807 134.296 197.895 136.36 196.071 140.344C194.295 144.28 193.311 146.344 193.119 146.536L191.895 147.688L191.031 149.416C192.183 149.08 195.687 147.88 201.543 145.816C202.023 145.72 202.311 145.672 202.407 145.672C202.551 145.672 202.623 145.72 202.623 145.816ZM187.071 151.432C184.383 152.056 181.959 152.536 179.799 152.872C182.295 154.168 183.903 155.704 184.623 157.48C185.103 156.136 185.919 154.12 187.071 151.432Z" fill="white"/>
<path d="M135.52 213.316L135.844 211.516C135.844 209.908 135.004 209.104 133.324 209.104C130.708 209.104 127.612 211.288 124.036 215.656C123.196 221.2 122.776 225.088 122.776 227.32C122.776 230.92 123.448 232.72 124.792 232.72C125.896 232.72 127.288 231.388 128.968 228.724L129.76 227.464C129.856 227.296 129.94 227.212 130.012 227.212C130.036 227.236 130.048 227.296 130.048 227.392C130.048 227.464 130.024 227.524 129.976 227.572C128.008 231.292 126.196 233.152 124.54 233.152C122.164 233.152 120.976 231.46 120.976 228.076C120.976 225.724 121.696 221.956 123.136 216.772C121.744 218.548 119.104 222.544 115.216 228.76C113.8 231.04 112.588 232.648 111.58 233.584C110.596 234.544 109.996 235.024 109.78 235.024C109.732 235.024 109.708 234.94 109.708 234.772C109.708 234.628 109.804 234.532 109.996 234.484C110.26 234.076 110.392 233.296 110.392 232.144C110.392 231.016 110.152 229.18 109.672 226.636C109.336 224.572 109.168 222.616 109.168 220.768C109.168 218.92 109.396 216.964 109.852 214.9C110.5 212.068 111.472 210.652 112.768 210.652C112.816 210.652 112.84 210.688 112.84 210.76C112.84 210.808 112.78 210.868 112.66 210.94C111.532 211.516 110.968 213.472 110.968 216.808C110.968 219.28 111.292 222.568 111.94 226.672C112.012 227.104 112.048 227.56 112.048 228.04C112.048 230.512 111.508 232.588 110.428 234.268C111.556 233.548 113.488 230.884 116.224 226.276C117.184 224.62 118.396 222.664 119.86 220.408C121.324 218.128 122.584 216.328 123.64 215.008C124 213.568 124.216 212.848 124.288 212.848C124.36 212.848 124.396 212.944 124.396 213.136C124.396 213.328 124.348 213.7 124.252 214.252C125.572 212.668 126.952 211.3 128.392 210.148C130.384 208.516 132.064 207.7 133.432 207.7C134.272 207.7 134.956 208.012 135.484 208.636C135.916 209.212 136.132 209.836 136.132 210.508C136.132 211.156 136.072 211.804 135.952 212.452C135.832 213.076 135.688 213.4 135.52 213.424V213.316ZM109.42 213.208C109.42 216.664 108.352 220.384 106.216 224.368C104.08 228.352 101.584 231.472 98.728 233.728C96.088 235.864 93.436 236.932 90.772 236.932C89.884 236.932 89.164 236.68 88.612 236.176C88.06 235.672 87.784 234.952 87.784 234.016C87.784 233.08 88.168 232.084 88.936 231.028C89.008 230.956 89.068 230.92 89.116 230.92C89.164 230.92 89.188 230.968 89.188 231.064C89.092 231.28 88.984 231.58 88.864 231.964C88.6 232.564 88.468 233.176 88.468 233.8C88.468 234.424 88.684 235.012 89.116 235.564C89.572 236.116 90.184 236.392 90.952 236.392C93.784 236.392 96.64 234.988 99.52 232.18C102.016 229.684 104.116 226.6 105.82 222.928C107.548 219.256 108.412 216.088 108.412 213.424C108.412 213.16 108.4 212.956 108.376 212.812C108.088 212.956 107.668 213.088 107.116 213.208C106.756 215.728 105.976 218.392 104.776 221.2C103.672 223.912 102.22 226.54 100.42 229.084C98.62 231.628 96.736 233.476 94.768 234.628C93.616 235.3 92.632 235.636 91.816 235.636C91.576 235.636 91.456 235.54 91.456 235.348C91.456 235.18 91.576 235.084 91.816 235.06C92.056 235.06 92.596 234.94 93.436 234.7C95.668 233.86 97.936 231.856 100.24 228.688C103.552 224.08 105.676 218.944 106.612 213.28C105.412 213.472 103.672 213.688 101.392 213.928C99.136 214.168 97.408 214.42 96.208 214.684C93.376 215.404 91.96 216.484 91.96 217.924C91.96 219.028 92.488 220.096 93.544 221.128C94.408 222.04 95.464 222.652 96.712 222.964C96.856 222.988 96.928 223.024 96.928 223.072C96.928 223.168 96.832 223.216 96.64 223.216C95.32 223.216 94.108 222.664 93.004 221.56C91.924 220.456 91.384 219.22 91.384 217.852C91.384 216.46 92.464 215.26 94.624 214.252C96.352 213.46 98.572 212.86 101.284 212.452C102.508 212.236 104.344 211.96 106.792 211.624C106.864 210.952 106.9 209.8 106.9 208.168C106.9 207.976 106.984 207.88 107.152 207.88C107.296 207.88 107.368 208.324 107.368 209.212C107.368 210.1 107.344 210.88 107.296 211.552C107.944 211.384 108.304 211.288 108.376 211.264C108.544 211.096 108.7 211.012 108.844 211.012C109.084 211.012 109.24 211.18 109.312 211.516C109.384 211.828 109.42 212.392 109.42 213.208ZM145.434 209.5L145.362 207.52C145.362 207.352 145.41 207.268 145.506 207.268C145.53 207.268 145.566 207.328 145.614 207.448C145.758 208.288 145.83 209.08 145.83 209.824C145.83 210.544 145.83 211.06 145.83 211.372C147.87 211.66 149.886 212.02 151.878 212.452C153.822 209.932 155.73 208.672 157.602 208.672C159.498 208.672 160.446 209.404 160.446 210.868C160.446 211.132 160.386 211.264 160.266 211.264C160.17 211.264 160.122 211.156 160.122 210.94C160.122 210.364 159.894 209.956 159.438 209.716C159.054 209.476 158.574 209.356 157.998 209.356C156.462 209.356 154.926 210.472 153.39 212.704C157.59 213.544 160.374 213.964 161.742 213.964C164.694 213.964 166.17 213.328 166.17 212.056C166.17 211.84 166.122 211.672 166.026 211.552C165.954 211.36 165.918 211.252 165.918 211.228C165.918 211.18 165.942 211.156 165.99 211.156C166.206 211.156 166.374 211.36 166.494 211.768C166.614 212.152 166.674 212.452 166.674 212.668C166.674 214.324 165.342 215.152 162.678 215.152C161.166 215.152 157.902 214.6 152.886 213.496C152.07 214.864 150.582 217.78 148.422 222.244C149.406 221.932 151.038 221.776 153.318 221.776C155.598 221.776 157.542 222.052 159.15 222.604C159.27 222.652 159.33 222.712 159.33 222.784C159.33 222.832 159.27 222.856 159.15 222.856L156.558 222.676C154.518 222.676 152.778 222.82 151.338 223.108C148.722 223.564 147.414 224.368 147.414 225.52C147.414 225.664 147.474 225.892 147.594 226.204V226.24C147.33 226.24 147.078 225.952 146.838 225.376C145.446 227.992 144.066 230.092 142.698 231.676C145.41 232.492 148.014 233.26 150.51 233.98C153.03 234.7 155.094 235.06 156.702 235.06C158.334 235.06 159.594 234.856 160.482 234.448C161.706 233.92 162.318 233.104 162.318 232C162.318 231.184 161.958 230.188 161.238 229.012L160.194 227.284C160.194 227.26 160.218 227.248 160.266 227.248C160.338 227.248 160.458 227.332 160.626 227.5C162.114 228.724 162.858 230.14 162.858 231.748C162.858 233.356 162.294 234.604 161.166 235.492C160.062 236.404 158.694 236.86 157.062 236.86C155.43 236.86 152.97 236.224 149.682 234.952C146.418 233.704 143.946 232.768 142.266 232.144C139.866 234.76 137.19 236.068 134.238 236.068C133.278 236.068 132.282 235.78 131.25 235.204C130.218 234.652 129.702 233.86 129.702 232.828C129.702 231.796 130.218 231.028 131.25 230.524C132.282 230.02 133.362 229.768 134.49 229.768C135.642 229.768 137.046 230.02 138.702 230.524C140.502 228.484 141.99 225.7 143.166 222.172C144.366 218.62 145.086 215.236 145.326 212.02C143.67 211.828 142.338 211.732 141.33 211.732C136.986 211.732 134.814 213.22 134.814 216.196C134.814 218.164 135.942 219.94 138.198 221.524C138.318 221.572 138.378 221.632 138.378 221.704C138.378 221.776 138.342 221.812 138.27 221.812C138.198 221.812 138.114 221.788 138.018 221.74C134.994 220.012 133.482 217.948 133.482 215.548C133.482 214.204 134.046 213.124 135.174 212.308C136.374 211.396 138.21 210.94 140.682 210.94C141.762 210.94 143.322 211.06 145.362 211.3C145.41 210.484 145.434 209.884 145.434 209.5ZM151.338 213.172C149.73 212.812 147.882 212.452 145.794 212.092C145.626 215.236 144.978 218.584 143.85 222.136C142.722 225.664 141.222 228.532 139.35 230.74L140.898 231.208C142.002 230.104 143.406 227.848 145.11 224.44C145.35 223.96 145.794 223.06 146.442 221.74C148.362 217.828 149.994 214.972 151.338 213.172ZM133.77 233.872C133.314 233.872 133.086 233.788 133.086 233.62C133.086 233.5 133.29 233.44 133.698 233.44C135.258 233.44 136.818 232.6 138.378 230.92C137.082 230.512 135.882 230.308 134.778 230.308C133.698 230.308 132.786 230.476 132.042 230.812C131.034 231.268 130.53 231.928 130.53 232.792C130.53 233.656 130.914 234.304 131.682 234.736C132.354 235.144 133.182 235.348 134.166 235.348C135.15 235.348 136.302 234.964 137.622 234.196C138.942 233.428 139.962 232.576 140.682 231.64L139.026 231.1C137.346 232.948 135.594 233.872 133.77 233.872Z" fill="white"/>
</svg>
